<svg class="svg-icon" style="width: 1em; height: 1em;vertical-align: middle;fill: currentColor;overflow: hidden;" viewBox="0 0 1024 1024" version="1.1" xmlns="http://www.w3.org/2000/svg"><path d="M867.356444 389.333333L541.767111 65.777778C536.419556 60.359111 529.137778 56.888889 521.528889 56.888889H235.463111C184.419556 56.888889 142.222222 96.113778 142.222222 153.201778v713.059555C142.222222 919.495111 180.138667 967.111111 235.463111 967.111111h542.392889C829.994667 967.111111 881.777778 924.245333 881.777778 866.261333V409.543111c0-7.480889-9.173333-14.890667-14.421334-20.209778zM540.444444 143.815111L801.308444 398.222222h-209.635555C559.544889 398.222222 540.444444 369.521778 540.444444 339.399111V143.815111zM777.856 910.222222H235.463111C211.285333 910.222222 199.111111 888.476444 199.111111 866.247111V153.201778C199.111111 131.143111 212.423111 113.777778 235.463111 113.777778h274.176l2.360889 2.304v223.317333C512 384.711111 544.298667 426.666667 591.672889 426.666667H824.888889v439.594666C824.888889 888.533333 800.568889 910.222222 777.856 910.222222z" fill="" /><path d="M286.208 554.666667h113.777778a14.222222 14.222222 0 1 0 0-28.444445h-113.777778a14.222222 14.222222 0 1 0 0 28.444445zM456.888889 554.666667h142.222222a14.222222 14.222222 0 1 0 0-28.444445h-142.222222a14.222222 14.222222 0 1 0 0 28.444445zM712.888889 526.222222h-56.888889a14.222222 14.222222 0 1 0 0 28.444445h56.888889a14.222222 14.222222 0 1 0 0-28.444445zM286.208 625.777778h56.888889a14.222222 14.222222 0 1 0 0-28.444445h-56.888889a14.222222 14.222222 0 1 0 0 28.444445zM399.985778 597.333333a14.222222 14.222222 0 1 0 0 28.444445h113.792a14.222222 14.222222 0 1 0 0-28.444445h-113.792zM712.888889 597.333333h-142.222222a14.222222 14.222222 0 1 0 0 28.444445h142.222222a14.222222 14.222222 0 1 0 0-28.444445zM286.208 711.111111h142.222222a14.222222 14.222222 0 1 0 0-28.444444h-142.222222a14.222222 14.222222 0 1 0 0 28.444444zM627.555556 682.666667h-142.222223a14.222222 14.222222 0 1 0 0 28.444444h142.222223a14.222222 14.222222 0 1 0 0-28.444444zM712.888889 682.666667h-28.444445a14.222222 14.222222 0 1 0 0 28.444444h28.444445a14.222222 14.222222 0 1 0 0-28.444444zM343.096889 753.777778h-56.888889a14.222222 14.222222 0 1 0 0 28.444444h56.888889a14.222222 14.222222 0 1 0 0-28.444444zM499.555556 753.777778h-99.569778a14.222222 14.222222 0 1 0 0 28.444444h99.569778a14.222222 14.222222 0 1 0 0-28.444444z" fill="" /></svg>